<svg xmlns="http://www.w3.org/2000/svg" width="93.751" height="100" viewBox="0 0 93.751 100"><defs><style>.a{fill:#f6b217;}</style></defs><g transform="translate(-649.708 -69.107)"><g transform="translate(649.708 69.107)"><path class="a" d="M718.292,69.107H672.57l-22.862,39.6,22.862,39.6h45.722l22.862-39.6Zm-2.019,75.1-.173.3H674.761l-20.669-35.8,20.669-35.8h.346l4.686,8.115,4.991-8.646h.658l-5.321,9.215,2.511,4.349,7.831-13.564h.877L683.071,86.7l2.346,4.064,10.616-18.387h1.315L686.074,91.9l2.127,3.684,13.4-23.21h1.754L689.078,97.1l1.935,3.352,16.212-28.081h2.192l-17.309,29.979,1.689,2.925,19-32.9h2.63l-20.312,35.182,1.627,2.818,20.351-35.25,1.754,3.036-20.352,35.252Z" transform="translate(-649.708 -69.107)"/></g><g transform="translate(650.099 161.839)"><path class="a" d="M656.535,236.9a1.833,1.833,0,0,1,.354,1.147,1.681,1.681,0,0,1-.727,1.459,3.651,3.651,0,0,1-2.118.514H650.43v-7.268h3.406a3.339,3.339,0,0,1,1.983.5,1.617,1.617,0,0,1,.7,1.386,1.815,1.815,0,0,1-.25.955,1.706,1.706,0,0,1-.685.644A1.914,1.914,0,0,1,656.535,236.9Zm-4.755-3.089v2h1.911a1.936,1.936,0,0,0,1.084-.255.838.838,0,0,0,.379-.742.849.849,0,0,0-.379-.753,1.94,1.94,0,0,0-1.084-.254Zm3.748,4.1q0-1.049-1.567-1.049h-2.18v2.1h2.18Q655.528,238.966,655.528,237.917Z" transform="translate(-650.43 -232.757)"/><path class="a" d="M673.613,240.025l-1.485-2.129a2.7,2.7,0,0,1-.281.011h-1.64v2.118h-1.35v-7.268h2.99a4.017,4.017,0,0,1,1.645.312,2.388,2.388,0,0,1,1.075.893,2.5,2.5,0,0,1,.374,1.381,2.462,2.462,0,0,1-.4,1.412,2.375,2.375,0,0,1-1.147.883l1.671,2.388Zm-.488-5.752a2.074,2.074,0,0,0-1.339-.374h-1.578v2.9h1.578a2.052,2.052,0,0,0,1.339-.379,1.319,1.319,0,0,0,.456-1.075A1.3,1.3,0,0,0,673.125,234.273Z" transform="translate(-658.88 -232.757)"/><path class="a" d="M690.554,238.343H686.92l-.716,1.682h-1.391l3.27-7.268h1.329l3.281,7.268h-1.412Zm-.447-1.059-1.37-3.177-1.36,3.177Z" transform="translate(-666.197 -232.757)"/><path class="a" d="M711.366,232.757v7.268h-1.111l-4.008-4.922v4.922h-1.34v-7.268h1.111l4.008,4.922v-4.922Z" transform="translate(-675.412 -232.757)"/><path class="a" d="M724.277,232.757h3.177a4.564,4.564,0,0,1,2.066.452,3.343,3.343,0,0,1,1.4,1.277,3.89,3.89,0,0,1,0,3.811,3.34,3.34,0,0,1-1.4,1.277,4.557,4.557,0,0,1-2.066.452h-3.177Zm3.115,6.126a3.074,3.074,0,0,0,1.406-.306,2.191,2.191,0,0,0,.935-.872,2.806,2.806,0,0,0,0-2.627,2.194,2.194,0,0,0-.935-.872,3.082,3.082,0,0,0-1.406-.306h-1.765v4.983Z" transform="translate(-684.294 -232.757)"/><path class="a" d="M759.536,232.757v7.268h-1.111l-4.008-4.922v4.922h-1.339v-7.268h1.111l4.008,4.922v-4.922Z" transform="translate(-697.501 -232.757)"/><path class="a" d="M776.29,238.343h-3.634l-.717,1.682h-1.391l3.27-7.268h1.329l3.281,7.268h-1.413Zm-.447-1.059-1.371-3.177-1.36,3.177Z" transform="translate(-705.512 -232.757)"/><path class="a" d="M797.321,240.025l-.011-4.818-2.388,3.987h-.6l-2.388-3.924v4.755h-1.288v-7.268h1.111l2.886,4.818,2.834-4.818h1.111l.01,7.268Z" transform="translate(-714.728 -232.757)"/><path class="a" d="M818.244,238.893v1.132h-5.451v-7.268H818.1v1.132h-3.956v1.889h3.51v1.112h-3.51v2Z" transform="translate(-724.884 -232.757)"/></g></g></svg>