<svg xmlns="http://www.w3.org/2000/svg" width="147" height="100" viewBox="0 0 147 100"><defs><style>.a{fill:#0064aa;}</style></defs><g transform="translate(-353.746 -67.564)"><rect class="a" width="19.919" height="19.919" rx="9.959" transform="translate(373.929 97.749)"/><path class="a" d="M481.463,96.385a28.905,28.905,0,0,0-28.821-28.821h0a28.9,28.9,0,0,0-28.82,28.821h0V138.5s57.635-6.417,57.64-42.111v0Z" transform="translate(-24.082)"/><path class="a" d="M353.746,181.364v0h0A20.11,20.11,0,0,0,373.8,201.42h0a20.111,20.111,0,0,0,20.051-20.051h0v-29.3S353.751,156.532,353.746,181.364Zm20.051,5.274a5.269,5.269,0,1,1,5.269-5.269A5.284,5.284,0,0,1,373.8,186.637Z" transform="translate(0 -33.856)"/><g transform="translate(400.083 142.447)"><path class="a" d="M427.763,201.6a6.412,6.412,0,0,1-2.509-2.406,7.027,7.027,0,0,1,.009-6.93,6.485,6.485,0,0,1,2.518-2.407,7.388,7.388,0,0,1,3.587-.87,7.475,7.475,0,0,1,2.94.562,6,6,0,0,1,2.248,1.629l-1.574,1.479a4.588,4.588,0,0,0-3.5-1.535,4.9,4.9,0,0,0-2.415.59,4.252,4.252,0,0,0-1.667,1.638,5.02,5.02,0,0,0,0,4.757,4.254,4.254,0,0,0,1.667,1.639,4.91,4.91,0,0,0,2.415.589,4.561,4.561,0,0,0,3.5-1.554l1.574,1.5a6,6,0,0,1-2.257,1.629,7.545,7.545,0,0,1-2.95.562A7.381,7.381,0,0,1,427.763,201.6Z" transform="translate(-424.345 -188.991)"/><path class="a" d="M448.107,201.6a6.44,6.44,0,0,1-2.528-2.415,6.962,6.962,0,0,1,0-6.911,6.446,6.446,0,0,1,2.528-2.416,7.941,7.941,0,0,1,7.229,0,6.477,6.477,0,0,1,2.529,2.407,7,7,0,0,1,0,6.93,6.467,6.467,0,0,1-2.529,2.406,7.935,7.935,0,0,1-7.229,0Zm5.975-1.854a4.276,4.276,0,0,0,1.648-1.648,4.984,4.984,0,0,0,0-4.739,4.274,4.274,0,0,0-1.648-1.647,5.014,5.014,0,0,0-4.72,0,4.265,4.265,0,0,0-1.648,1.647,4.989,4.989,0,0,0,0,4.739,4.267,4.267,0,0,0,1.648,1.648,5.019,5.019,0,0,0,4.72,0Z" transform="translate(-431.327 -188.991)"/><path class="a" d="M482.156,202.386l-.018-8.69-4.308,7.192h-1.087l-4.307-7.079v8.578h-2.322v-13.11h2l5.206,8.69,5.113-8.69h2l.018,13.11Z" transform="translate(-440.074 -189.089)"/><path class="a" d="M505.725,189.838a4.319,4.319,0,0,1,1.938,1.611,4.922,4.922,0,0,1,0,4.972,4.292,4.292,0,0,1-1.938,1.62,7.256,7.256,0,0,1-2.969.562H499.8v3.783h-2.435v-13.11h5.394A7.256,7.256,0,0,1,505.725,189.838Zm-.665,6.03a2.671,2.671,0,0,0,0-3.858,3.741,3.741,0,0,0-2.417-.674H499.8v5.206h2.846A3.741,3.741,0,0,0,505.061,195.868Z" transform="translate(-449.438 -189.089)"/><path class="a" d="M524.326,199.351h-6.554l-1.292,3.034h-2.51l5.9-13.11h2.4l5.918,13.11h-2.547Zm-.8-1.91-2.472-5.731-2.453,5.731Z" transform="translate(-455.145 -189.089)"/><path class="a" d="M549.816,189.276v13.11h-2l-7.23-8.877v8.877h-2.416v-13.11h2l7.229,8.877v-8.877Z" transform="translate(-463.461 -189.089)"/><path class="a" d="M565.926,197.76v4.626h-2.434V197.8l-5.15-8.521h2.6l3.84,6.386,3.876-6.386h2.4Z" transform="translate(-470.394 -189.089)"/></g></g></svg>