<svg xmlns="http://www.w3.org/2000/svg" width="117.479" height="100" viewBox="0 0 117.479 100"><defs><style>.a{fill:#403449;}</style></defs><g transform="translate(-911.17 -74.653)"><g transform="translate(911.17 152.093)"><path class="a" d="M920.105,195.755a3.094,3.094,0,0,1,.693,2.006,3.17,3.17,0,0,1-1.071,2.529,4.611,4.611,0,0,1-3.1.926H911.17v-12.7h5.345a4.57,4.57,0,0,1,2.96.846,2.9,2.9,0,0,1,1.035,2.375,2.959,2.959,0,0,1-.621,1.944,2.887,2.887,0,0,1-1.628.99A3.09,3.09,0,0,1,920.105,195.755Zm-6.4-1.917h2.285a2.179,2.179,0,0,0,1.449-.423,1.511,1.511,0,0,0,.495-1.214,1.551,1.551,0,0,0-.487-1.224,2.2,2.2,0,0,0-1.493-.431h-2.249Zm3.959,4.868a1.565,1.565,0,0,0,.54-1.287,1.605,1.605,0,0,0-.549-1.3,2.362,2.362,0,0,0-1.557-.459h-2.393v3.491h2.411A2.39,2.39,0,0,0,917.666,198.706Z" transform="translate(-911.17 -188.511)"/><path class="a" d="M939.077,201.216l-2.969-4.949h-1.116v4.949h-2.537v-12.7H937.3a4.779,4.779,0,0,1,3.375,1.08,4.049,4.049,0,0,1,.36,5.254,3.954,3.954,0,0,1-2.313,1.3l3.167,5.075Zm-4.085-6.694h2.088q2.177,0,2.177-1.926a1.9,1.9,0,0,0-.531-1.43,2.3,2.3,0,0,0-1.647-.513h-2.088Z" transform="translate(-919.247 -188.511)"/><path class="a" d="M960.385,198.749h-5.093l-.9,2.555h-2.682l4.679-12.561h2.9l4.661,12.561h-2.681Zm-.684-1.926-1.871-5.362-1.872,5.362Z" transform="translate(-926.554 -188.599)"/><path class="a" d="M987.3,201.216h-2.537l-5.687-8.638v8.638h-2.537v-12.7h2.537l5.687,8.71v-8.71H987.3Z" transform="translate(-935.973 -188.511)"/><path class="a" d="M1010.873,198.175a5.511,5.511,0,0,1-2.294,2.241,7.5,7.5,0,0,1-3.572.8h-4.516v-12.7h4.516a7.64,7.64,0,0,1,3.572.783,5.416,5.416,0,0,1,2.294,2.213,7.413,7.413,0,0,1,0,6.667Zm-2.907-.306a4.649,4.649,0,0,0,0-6.065,4.4,4.4,0,0,0-3.176-1.08h-1.764v8.225h1.764A4.4,4.4,0,0,0,1007.966,197.869Z" transform="translate(-945.063 -188.511)"/></g><path class="a" d="M968.249,74.653s32.761,12.368,32.066,30.266h.01v30.266s-32.761-12.368-32.066-30.266h-.011Z" transform="translate(-21.659)"/><g transform="translate(982.971 81.668)"><path class="a" d="M1066.954,150.3a44.818,44.818,0,0,1,20.809-7.67v-9.477a42.694,42.694,0,0,0-20.809,17.147Z" transform="translate(-1042.085 -100.989)"/><path class="a" d="M1048.025,139.124A47.344,47.344,0,0,1,1059.1,123.86a43.7,43.7,0,0,1,13.453-8.454V85.958s-46.652,19-45.662,46.492h-.016v46.492s2.082-.849,5.35-2.442c-.012-1.491.033-2.991.148-4.5A49.643,49.643,0,0,1,1048.025,139.124Z" transform="translate(-1026.878 -85.958)"/><path class="a" d="M1048.767,185.79a44.747,44.747,0,0,1,1.63-8.823,41.6,41.6,0,0,0-9.754,23.547c-.068.822-.1,1.641-.124,2.459,2.65-1.276,5.733-2.863,8.973-4.73A44.515,44.515,0,0,1,1048.767,185.79Z" transform="translate(-1032.054 -113.705)"/><path class="a" d="M1056.713,177.023a42.659,42.659,0,0,0,.575,11.3c12.748-7.625,27.073-19.407,26.519-33.65h.016v-1.213a41.841,41.841,0,0,0-24.252,11.325A42.606,42.606,0,0,0,1056.713,177.023Z" transform="translate(-1038.144 -104.784)"/></g></g></svg>