<svg xmlns="http://www.w3.org/2000/svg" width="82.2" height="100" viewBox="0 0 82.2 100"><defs><style>.a{fill:#ce5959;}</style></defs><g transform="translate(-100.744 -71.185)"><g transform="translate(101.152 71.185)"><path class="a" d="M123.473,71.185,138,85.714h40.528v40.528l14.529,14.529V71.185Z" transform="translate(-111.268 -71.185)"/><path class="a" d="M101.479,97.366v67.263h67.263V137.894L128.214,97.366Zm54.45,57.427H112.123V109.554h3.1V151.7h40.71Z" transform="translate(-101.479 -82.837)"/></g><g transform="translate(100.744 163.39)"><path class="a" d="M106.565,240.812a.214.214,0,0,1,.154.069l.4.442a3.261,3.261,0,0,1-1.135.846,3.88,3.88,0,0,1-1.61.3,3.789,3.789,0,0,1-1.5-.285,3.274,3.274,0,0,1-1.144-.8,3.61,3.61,0,0,1-.734-1.232,4.6,4.6,0,0,1-.261-1.58,4.332,4.332,0,0,1,.279-1.58,3.616,3.616,0,0,1,.785-1.234,3.51,3.51,0,0,1,1.21-.8,4.121,4.121,0,0,1,1.557-.285,3.468,3.468,0,0,1,2.532.968l-.335.473a.357.357,0,0,1-.085.088.231.231,0,0,1-.138.035.266.266,0,0,1-.146-.051c-.052-.033-.113-.075-.184-.125s-.155-.1-.251-.159a2.125,2.125,0,0,0-.34-.16,2.92,2.92,0,0,0-.457-.125,3.224,3.224,0,0,0-.6-.05,2.911,2.911,0,0,0-1.12.21,2.516,2.516,0,0,0-.875.6,2.724,2.724,0,0,0-.572.947,3.612,3.612,0,0,0-.2,1.25,3.679,3.679,0,0,0,.2,1.271,2.8,2.8,0,0,0,.559.945,2.351,2.351,0,0,0,.838.588,2.679,2.679,0,0,0,1.043.2,4.23,4.23,0,0,0,.612-.04,2.519,2.519,0,0,0,.5-.125,2.121,2.121,0,0,0,.432-.216,3.38,3.38,0,0,0,.4-.311A.271.271,0,0,1,106.565,240.812Z" transform="translate(-100.744 -234.677)"/><path class="a" d="M126.212,238.577a4.4,4.4,0,0,1-.272,1.572,3.6,3.6,0,0,1-.766,1.232,3.421,3.421,0,0,1-1.189.8,4.273,4.273,0,0,1-3.067,0,3.43,3.43,0,0,1-1.187-.8,3.6,3.6,0,0,1-.766-1.232,4.7,4.7,0,0,1,0-3.144,3.624,3.624,0,0,1,.766-1.235,3.451,3.451,0,0,1,1.187-.806,4.242,4.242,0,0,1,3.067,0,3.442,3.442,0,0,1,1.189.806,3.624,3.624,0,0,1,.766,1.235A4.4,4.4,0,0,1,126.212,238.577Zm-1.059,0a3.874,3.874,0,0,0-.191-1.261,2.667,2.667,0,0,0-.543-.945,2.354,2.354,0,0,0-.851-.593,3.1,3.1,0,0,0-2.23,0,2.389,2.389,0,0,0-.854.593,2.646,2.646,0,0,0-.545.945,4.238,4.238,0,0,0,0,2.519,2.646,2.646,0,0,0,.545.942,2.357,2.357,0,0,0,.854.591,3.137,3.137,0,0,0,2.23,0,2.324,2.324,0,0,0,.851-.591,2.666,2.666,0,0,0,.543-.942A3.85,3.85,0,0,0,125.153,238.577Z" transform="translate(-108.733 -234.677)"/><path class="a" d="M143.457,239.967q.056.141.109.285c.035-.1.073-.194.112-.285s.084-.181.133-.274l2.581-4.688a.307.307,0,0,1,.144-.149.658.658,0,0,1,.213-.027h.761v7.625h-.9v-5.6c0-.075,0-.155,0-.24s.009-.172.016-.261l-2.613,4.768a.41.41,0,0,1-.372.24h-.149a.411.411,0,0,1-.372-.24l-2.671-4.784c.011.093.019.183.024.272s.008.17.008.245v5.6h-.9V234.83h.761a.66.66,0,0,1,.213.027.307.307,0,0,1,.144.149l2.634,4.693A1.969,1.969,0,0,1,143.457,239.967Z" transform="translate(-118.026 -234.745)"/><path class="a" d="M163.23,239.6v2.852H162.2V234.83h2.251a4.234,4.234,0,0,1,1.259.168,2.417,2.417,0,0,1,.886.476,1.924,1.924,0,0,1,.524.745,2.619,2.619,0,0,1,.173.973,2.479,2.479,0,0,1-.186.974,2.087,2.087,0,0,1-.545.761,2.529,2.529,0,0,1-.892.5,3.813,3.813,0,0,1-1.218.179Zm0-.82h1.224a2.369,2.369,0,0,0,.779-.117,1.6,1.6,0,0,0,.567-.327,1.365,1.365,0,0,0,.346-.5,1.728,1.728,0,0,0,.117-.644,1.464,1.464,0,0,0-.45-1.139,1.964,1.964,0,0,0-1.36-.41H163.23Z" transform="translate(-128.096 -234.745)"/><path class="a" d="M182.773,242.455h-.8a.344.344,0,0,1-.224-.069.424.424,0,0,1-.128-.175l-.713-1.841h-3.421l-.713,1.841a.408.408,0,0,1-.128.17.338.338,0,0,1-.223.075h-.8l3.049-7.625h1.048Zm-5-2.831h2.847l-1.2-3.1a5.755,5.755,0,0,1-.229-.718c-.039.145-.077.279-.114.4s-.074.23-.109.322Z" transform="translate(-134.071 -234.745)"/><path class="a" d="M195.77,234.865a.526.526,0,0,1,.152.14l4.416,5.747c-.011-.093-.017-.182-.021-.269s-.006-.171-.006-.253v-5.4h.9v7.625h-.521a.448.448,0,0,1-.205-.043.519.519,0,0,1-.162-.144l-4.411-5.741c.007.088.013.175.017.26s0,.164,0,.234v5.433h-.9V234.83h.532A.458.458,0,0,1,195.77,234.865Z" transform="translate(-142.708 -234.745)"/><path class="a" d="M216.553,239.422v3.033h-1.027v-3.033l-2.793-4.592h.9a.321.321,0,0,1,.218.069.641.641,0,0,1,.139.17l1.745,2.963a3.621,3.621,0,0,1,.178.351q.072.165.13.325c.039-.11.082-.22.128-.33a2.825,2.825,0,0,1,.175-.346l1.74-2.963a.7.7,0,0,1,.13-.163.306.306,0,0,1,.216-.077h.915Z" transform="translate(-150.585 -234.745)"/></g></g></svg>